# xmcd
#
# Track frame offsets:
#	150
#	6533
#	36566
#	59937
#	80029
#	98673
#	121911
#	142827
#	165790
#	186182
#	205530
#
# Disc length: 3071 seconds
#
# Revision: 1785919427
# Processed by: cddbd v1.5.2PL0 Copyright (c) Steve Scherf et al.
# Submitted via: EZCDAudioConverter 8.0.2.1
#
DISCID=930bfd0b
DTITLE=Thủy Tiên - st. Trịnh Công Sơn. Xin Cho Tôi
DYEAR=2007
DGENRE=World Pop
TTITLE0=Lời thoại
TTITLE1=Xin Cho Tôi
TTITLE2=Như cánh vạc bay
TTITLE3=Cỏ xót xa đưa
TTITLE4=Một lần thoáng có
TTITLE5=Này em có nhớ
TTITLE6=Ru em từng ngón xuân nồng
TTITLE7=Giọt lệ thiên thu
TTITLE8=Hãy cứ vui như mọi ngày
TTITLE9=Đời cho ta thế
TTITLE10=Muôn trùng biển ơi
EXTD=
EXTT0=
EXTT1=
EXTT2=
EXTT3=
EXTT4=
EXTT5=
EXTT6=
EXTT7=
EXTT8=
EXTT9=
EXTT10=
PLAYORDER=
